<svg width="40" height="24" viewBox="0 0 40 24" fill="none" xmlns="http://www.w3.org/2000/svg">
<path d="M24 9H23V20.5C23 20.7083 22.9609 20.9036 22.8828 21.0859C22.8047 21.2682 22.6979 21.4271 22.5625 21.5625C22.4271 21.6979 22.2682 21.8047 22.0859 21.8828C21.9036 21.9609 21.7083 22 21.5 22H13.5C13.2917 22 13.0964 21.9609 12.9141 21.8828C12.7318 21.8047 12.5729 21.6979 12.4375 21.5625C12.3021 21.4271 12.1953 21.2682 12.1172 21.0859C12.0391 20.9036 12 20.7083 12 20.5V9H11V8H15V7C15 6.85938 15.026 6.72917 15.0781 6.60938C15.1302 6.48958 15.2005 6.38542 15.2891 6.29688C15.3828 6.20312 15.4896 6.13021 15.6094 6.07812C15.7292 6.02604 15.8594 6 16 6H19C19.1406 6 19.2708 6.02604 19.3906 6.07812C19.5104 6.13021 19.6146 6.20312 19.7031 6.29688C19.7969 6.38542 19.8698 6.48958 19.9219 6.60938C19.974 6.72917 20 6.85938 20 7V8H24V9ZM16 8H19V7H16V8ZM22 9H13V20.5C13 20.6354 13.0495 20.7526 13.1484 20.8516C13.2474 20.9505 13.3646 21 13.5 21H21.5C21.6354 21 21.7526 20.9505 21.8516 20.8516C21.9505 20.7526 22 20.6354 22 20.5V9ZM16 19H15V11H16V19ZM18 19H17V11H18V19ZM20 19H19V11H20V19Z" fill="black"/>
</svg>
