<svg width="40" height="24" viewBox="0 0 40 24" fill="none" xmlns="http://www.w3.org/2000/svg">
<path d="M18 12C18.4115 12 18.7995 12.0781 19.1641 12.2344C19.5286 12.3906 19.8464 12.6068 20.1172 12.8828C20.3932 13.1536 20.6094 13.4714 20.7656 13.8359C20.9219 14.2005 21 14.5885 21 15C21 15.4167 20.9219 15.8073 20.7656 16.1719C20.6094 16.5312 20.3932 16.849 20.1172 17.125C19.8464 17.3958 19.5286 17.6094 19.1641 17.7656C18.7995 17.9219 18.4115 18 18 18C17.5833 18 17.1927 17.9219 16.8281 17.7656C16.4688 17.6094 16.151 17.3958 15.875 17.125C15.6042 16.849 15.3906 16.5312 15.2344 16.1719C15.0781 15.8073 15 15.4167 15 15C15 14.5885 15.0781 14.2005 15.2344 13.8359C15.3906 13.4714 15.6042 13.1536 15.875 12.8828C16.151 12.6068 16.4688 12.3906 16.8281 12.2344C17.1927 12.0781 17.5833 12 18 12ZM18 17C18.276 17 18.5339 16.9479 18.7734 16.8438C19.0182 16.7396 19.2318 16.5964 19.4141 16.4141C19.5964 16.2318 19.7396 16.0208 19.8438 15.7812C19.9479 15.5365 20 15.276 20 15C20 14.724 19.9479 14.4661 19.8438 14.2266C19.7396 13.9818 19.5964 13.7682 19.4141 13.5859C19.2318 13.4036 19.0182 13.2604 18.7734 13.1562C18.5339 13.0521 18.276 13 18 13C17.724 13 17.4635 13.0521 17.2188 13.1562C16.9792 13.2604 16.7682 13.4036 16.5859 13.5859C16.4036 13.7682 16.2604 13.9818 16.1562 14.2266C16.0521 14.4661 16 14.724 16 15C16 15.276 16.0521 15.5365 16.1562 15.7812C16.2604 16.0208 16.4036 16.2318 16.5859 16.4141C16.7682 16.5964 16.9792 16.7396 17.2188 16.8438C17.4635 16.9479 17.724 17 18 17ZM18 8C18.7448 8 19.4844 8.09375 20.2188 8.28125C20.9531 8.46354 21.6458 8.73438 22.2969 9.09375C22.9479 9.45312 23.5365 9.89844 24.0625 10.4297C24.5938 10.9557 25.026 11.5625 25.3594 12.25C25.5677 12.6823 25.7266 13.1302 25.8359 13.5938C25.9453 14.0521 26 14.5208 26 15H25C25 14.3854 24.9062 13.8099 24.7188 13.2734C24.5312 12.737 24.2708 12.2474 23.9375 11.8047C23.6094 11.362 23.2214 10.9661 22.7734 10.6172C22.3255 10.2682 21.8411 9.97396 21.3203 9.73438C20.8047 9.49479 20.263 9.3125 19.6953 9.1875C19.1276 9.0625 18.5625 9 18 9C17.4375 9 16.8724 9.0625 16.3047 9.1875C15.737 9.3125 15.1927 9.49479 14.6719 9.73438C14.1562 9.97396 13.6745 10.2682 13.2266 10.6172C12.7786 10.9661 12.388 11.362 12.0547 11.8047C11.7266 12.2474 11.4688 12.737 11.2812 13.2734C11.0938 13.8099 11 14.3854 11 15H10C10 14.5208 10.0547 14.0521 10.1641 13.5938C10.2734 13.1302 10.4323 12.6823 10.6406 12.25C10.974 11.5625 11.4036 10.9557 11.9297 10.4297C12.4609 9.89844 13.0521 9.45312 13.7031 9.09375C14.3542 8.73438 15.0469 8.46354 15.7812 8.28125C16.5156 8.09375 17.2552 8 18 8Z" fill="black"/>
</svg>
