<svg width="40" height="24" viewBox="0 0 40 24" fill="none" xmlns="http://www.w3.org/2000/svg">
<path d="M20.5 6C21.0052 6 21.4922 6.0651 21.9609 6.19531C22.4297 6.32552 22.8672 6.51042 23.2734 6.75C23.6797 6.98958 24.0495 7.27865 24.3828 7.61719C24.7214 7.95052 25.0104 8.32031 25.25 8.72656C25.4896 9.13281 25.6745 9.57031 25.8047 10.0391C25.9349 10.5078 26 10.9948 26 11.5C26 12.0052 25.9349 12.4922 25.8047 12.9609C25.6745 13.4297 25.4896 13.8672 25.25 14.2734C25.0104 14.6797 24.7214 15.0521 24.3828 15.3906C24.0495 15.724 23.6797 16.0104 23.2734 16.25C22.8672 16.4896 22.4297 16.6745 21.9609 16.8047C21.4922 16.9349 21.0052 17 20.5 17C19.849 17 19.224 16.8906 18.625 16.6719C18.0312 16.4531 17.4844 16.138 16.9844 15.7266L10.8516 21.8516C10.7526 21.9505 10.6354 22 10.5 22C10.3646 22 10.2474 21.9505 10.1484 21.8516C10.0495 21.7526 10 21.6354 10 21.5C10 21.3646 10.0495 21.2474 10.1484 21.1484L16.2734 15.0156C15.862 14.5156 15.5469 13.9688 15.3281 13.375C15.1094 12.776 15 12.151 15 11.5C15 10.9948 15.0651 10.5078 15.1953 10.0391C15.3255 9.57031 15.5104 9.13281 15.75 8.72656C15.9896 8.32031 16.276 7.95052 16.6094 7.61719C16.9479 7.27865 17.3203 6.98958 17.7266 6.75C18.1328 6.51042 18.5703 6.32552 19.0391 6.19531C19.5078 6.0651 19.9948 6 20.5 6ZM20.5 16C21.1198 16 21.7031 15.8828 22.25 15.6484C22.7969 15.4089 23.2734 15.0859 23.6797 14.6797C24.0859 14.2734 24.4062 13.7969 24.6406 13.25C24.8802 12.7031 25 12.1198 25 11.5C25 10.8802 24.8802 10.2969 24.6406 9.75C24.4062 9.20312 24.0859 8.72656 23.6797 8.32031C23.2734 7.91406 22.7969 7.59375 22.25 7.35938C21.7031 7.11979 21.1198 7 20.5 7C19.8802 7 19.2969 7.11979 18.75 7.35938C18.2031 7.59375 17.7266 7.91406 17.3203 8.32031C16.9141 8.72656 16.5911 9.20312 16.3516 9.75C16.1172 10.2969 16 10.8802 16 11.5C16 12.1198 16.1172 12.7031 16.3516 13.25C16.5911 13.7969 16.9141 14.2734 17.3203 14.6797C17.7266 15.0859 18.2031 15.4089 18.75 15.6484C19.2969 15.8828 19.8802 16 20.5 16Z" fill="black"/>
</svg>
