<svg width="40" height="24" viewBox="0 0 40 24" fill="none" xmlns="http://www.w3.org/2000/svg">
<path d="M23.9297 13.7188C23.9297 13.7656 23.9297 13.8125 23.9297 13.8594C23.9349 13.9062 23.9375 13.9531 23.9375 14C23.9375 14.0469 23.9349 14.0938 23.9297 14.1406C23.9297 14.1875 23.9297 14.2344 23.9297 14.2812L25.9531 15.5391L24.7109 18.5312L22.3906 18C22.2656 18.1354 22.1354 18.2656 22 18.3906L22.5312 20.7109L19.5391 21.9531L18.2812 19.9297C18.2344 19.9297 18.1875 19.9323 18.1406 19.9375C18.0938 19.9375 18.0469 19.9375 18 19.9375C17.9531 19.9375 17.9062 19.9375 17.8594 19.9375C17.8125 19.9323 17.7656 19.9297 17.7188 19.9297L16.4609 21.9531L13.4688 20.7109L14 18.3906C13.8646 18.2656 13.7344 18.1354 13.6094 18L11.2891 18.5312L10.0469 15.5391L12.0703 14.2812C12.0703 14.2344 12.0677 14.1875 12.0625 14.1406C12.0625 14.0938 12.0625 14.0469 12.0625 14C12.0625 13.9531 12.0625 13.9062 12.0625 13.8594C12.0677 13.8125 12.0703 13.7656 12.0703 13.7188L10.0469 12.4609L11.2891 9.46875L13.6094 10C13.7344 9.86458 13.8646 9.73438 14 9.60938L13.4688 7.28906L16.4609 6.04688L17.7188 8.07031C17.7656 8.07031 17.8125 8.07031 17.8594 8.07031C17.9062 8.0651 17.9531 8.0625 18 8.0625C18.0469 8.0625 18.0938 8.0651 18.1406 8.07031C18.1875 8.07031 18.2344 8.07031 18.2812 8.07031L19.5391 6.04688L22.5312 7.28906L22 9.60938C22.1354 9.73438 22.2656 9.86458 22.3906 10L24.7109 9.46875L25.9531 12.4609L23.9297 13.7188ZM23.0156 14.7344C23.026 14.6094 23.0365 14.487 23.0469 14.3672C23.0573 14.2422 23.0625 14.1172 23.0625 13.9922C23.0625 13.8724 23.0573 13.75 23.0469 13.625C23.0365 13.5 23.026 13.3776 23.0156 13.2578L24.8594 12.1094L24.1875 10.4844L22.0703 10.9766C21.9089 10.7786 21.7422 10.5964 21.5703 10.4297C21.4036 10.263 21.2214 10.0964 21.0234 9.92969L21.5156 7.8125L19.8906 7.14062L18.7344 8.98438C18.6146 8.97396 18.4922 8.96354 18.3672 8.95312C18.2422 8.94271 18.1198 8.9375 18 8.9375C17.875 8.9375 17.75 8.94271 17.625 8.95312C17.5052 8.96354 17.3828 8.97396 17.2578 8.98438L16.1094 7.14062L14.4844 7.8125L14.9766 9.92969C14.7786 10.0911 14.5964 10.2578 14.4297 10.4297C14.263 10.5964 14.0964 10.7786 13.9297 10.9766L11.8125 10.4844L11.1406 12.1094L12.9844 13.2656C12.974 13.3906 12.9635 13.5156 12.9531 13.6406C12.9427 13.7604 12.9375 13.8828 12.9375 14.0078C12.9375 14.1276 12.9427 14.25 12.9531 14.375C12.9635 14.5 12.974 14.6224 12.9844 14.7422L11.1406 15.8906L11.8125 17.5156L13.9297 17.0234C14.0911 17.2214 14.2552 17.4036 14.4219 17.5703C14.5938 17.737 14.7786 17.9036 14.9766 18.0703L14.4844 20.1875L16.1094 20.8594L17.2656 19.0156C17.3854 19.026 17.5078 19.0365 17.6328 19.0469C17.7578 19.0573 17.8802 19.0625 18 19.0625C18.125 19.0625 18.2474 19.0573 18.3672 19.0469C18.4922 19.0365 18.6172 19.026 18.7422 19.0156L19.8906 20.8594L21.5156 20.1875L21.0234 18.0703C21.2214 17.9089 21.4036 17.7448 21.5703 17.5781C21.737 17.4062 21.9036 17.2214 22.0703 17.0234L24.1875 17.5156L24.8594 15.8906L23.0156 14.7344ZM18 11.0625C18.4062 11.0625 18.7865 11.1406 19.1406 11.2969C19.5 11.4479 19.8125 11.6562 20.0781 11.9219C20.3438 12.1875 20.5521 12.5 20.7031 12.8594C20.8594 13.2135 20.9375 13.5938 20.9375 14C20.9375 14.4062 20.8594 14.7891 20.7031 15.1484C20.5521 15.5026 20.3438 15.8125 20.0781 16.0781C19.8125 16.3438 19.5 16.5547 19.1406 16.7109C18.7865 16.862 18.4062 16.9375 18 16.9375C17.5938 16.9375 17.2109 16.862 16.8516 16.7109C16.4974 16.5547 16.1875 16.3438 15.9219 16.0781C15.6562 15.8125 15.4453 15.5026 15.2891 15.1484C15.138 14.7891 15.0625 14.4062 15.0625 14C15.0625 13.5938 15.138 13.2135 15.2891 12.8594C15.4453 12.5 15.6562 12.1875 15.9219 11.9219C16.1875 11.6562 16.4974 11.4479 16.8516 11.2969C17.2109 11.1406 17.5938 11.0625 18 11.0625ZM18 16.0625C18.2865 16.0625 18.5547 16.0104 18.8047 15.9062C19.0547 15.7969 19.2734 15.6484 19.4609 15.4609C19.6484 15.2734 19.7943 15.0547 19.8984 14.8047C20.0078 14.5547 20.0625 14.2865 20.0625 14C20.0625 13.7135 20.0078 13.4453 19.8984 13.1953C19.7943 12.9453 19.6484 12.7266 19.4609 12.5391C19.2734 12.3516 19.0547 12.2057 18.8047 12.1016C18.5547 11.9922 18.2865 11.9375 18 11.9375C17.7135 11.9375 17.4453 11.9922 17.1953 12.1016C16.9453 12.2057 16.7266 12.3516 16.5391 12.5391C16.3516 12.7266 16.2031 12.9453 16.0938 13.1953C15.9896 13.4453 15.9375 13.7135 15.9375 14C15.9375 14.2865 15.9896 14.5547 16.0938 14.8047C16.2031 15.0547 16.3516 15.2734 16.5391 15.4609C16.7266 15.6484 16.9453 15.7969 17.1953 15.9062C17.4453 16.0104 17.7135 16.0625 18 16.0625Z" fill="black"/>
</svg>
